name processed_emg_signals
nRows=41
nColumns=7
 
endheader
time	LGLTMED	LRF	LADDLONG	LST	LTA	LGM
1.92	0.1044839604866641	0.0521208408740649	0.0399943465734617	0.0254621567734669	0.0432836061133139	0.0780069102531656
1.921	0.1080135338983283	0.0518401223815062	0.0398584578298427	0.0249847524746606	0.0436385302660628	0.0774718534530991
1.922	0.1115157651768815	0.051561628199523	0.0397236284411078	0.0245190036744968	0.0440113808060656	0.0769133639326459
1.923	0.1149873089596134	0.0512855167437461	0.0395898146613266	0.0240651799976059	0.0444012233195323	0.0763321856362726
1.924	0.1184248742591589	0.0510119435607577	0.0394569755774611	0.0236235335822687	0.0448071507589536	0.0757291181377628
1.925	0.1218252267036369	0.0507410609050727	0.0393250730692653	0.0231942995041427	0.0452282832090889	0.0751050167391279
1.926	0.1251851907594753	0.0504730173301431	0.0391940717617563	0.0227776962154158	0.0456637676225869	0.0744607925223257
1.927	0.1285016519360158	0.0502079572943235	0.0390639389708088	0.0223739259980595	0.0461127775271127	0.0737974123516911
1.928	0.1317715589708723	0.0499460207827264	0.0389346446426099	0.0219831754297002	0.046574512705751	0.0731158988248276
1.929	0.1349919259947343	0.0496873429458165	0.0388061612875707	0.0216056158607881	0.0470481988525515	0.0724173301695716
1.93	0.1381598346741658	0.0494320537555117	0.0386784639095328	0.0212414039016113	0.0475330872048671	0.0717028400844461
1.931	0.1412724363307919	0.0491802776794434	0.0385515299310277	0.0208906819177621	0.0480284541542382	0.0709736175199104
1.932	0.1443269540351252	0.0489321333740254	0.0384253391153866	0.0205535785327265	0.0485336008373863	0.070230906397492
1.933	0.1473206846732077	0.0486877333968889	0.0382998734864926	0.0202302091362359	0.0490478527089536	0.0694760052637843
1.934	0.1502510009841309	0.0484471839392166	0.0381751172468708	0.0199206763972072	0.0495705590975696	0.0687102668761979
1.935	0.1531153535662053	0.0482105845785363	0.0380510566946568	0.0196250707800609	0.0501010927467775	0.0679350977174048
1.936	0.1559112728494575	0.0479780280525753	0.0379276801399961	0.0193434710633332	0.0506388493424426	0.0671519574354589
1.937	0.1586363710317855	0.0477496000548224	0.0378049778211966	0.0190759448594786	0.05118324702824	0.0663623582067283
1.938	0.1612883439759056	0.0475253790524355	0.0376829418209023	0.0188225491348429	0.0517337259108512	0.0655678640190371
1.939	0.1638649730638275	0.0473054361270573	0.0375615659824189	0.0185833307287755	0.0522897475565749	0.0647700898728384
1.94	0.166364127005206	0.0470898348390717	0.037440845826296	0.0183583268708999	0.0528507944810787	0.0639707008986863
1.941	0.1687837635955566	0.0468786311156827	0.0373207784671391	0.0181475656955625	0.0534163696340365	0.0631714113899573
1.942	0.1711219314200884	0.0466718731631295	0.0372013625306211	0.0179510667524423	0.0539859958803135	0.0623739837502002
1.943	0.1733767714986779	0.0464696014032609	0.0370825980705944	0.0177688415123593	0.0545592154793052	0.0615802273548638
1.944	0.1755465188674794	0.0462718484345224	0.0369644864861999	0.0176008938672428	0.0551355895639387	0.0607919973273285
1.945	0.1776295040923442	0.0460786390173577	0.036847030438855	0.017447220623311	0.0557146976207062	0.0600111932292782
1.946	0.1796241547090055	0.045889990083871	0.0367302337691007	0.0173078119864731	0.056296136972055	0.0592397576655584
1.947	0.1815289965846615	0.0457059107715169	0.0366141014131525	0.0171826520389746	0.0568795222622796	0.0584796748037508
1.948	0.1833426551954535	0.0455264024805761	0.0364986393190555	0.0170717192063755	0.0574644849480134	0.0577329688088846
1.949	0.185063856814246	0.0453514589550202	0.0363838543622323	0.0169749867138927	0.0580506727943358	0.0570017021937133
1.95	0.1866914296030765	0.0451810663864417	0.0362697542601856	0.0168924230311719	0.0586377493773448	0.0562879740851836
1.951	0.1882243046048064	0.0450152035405547	0.0361563474861995	0.0168239923045098	0.0592253935939942	0.055593918407611
1.952	0.1896615166287132	0.0448538419057168	0.0360436431819789	0.0167696547756336	0.0598132991798543	0.0549217019832108
1.953	0.1910022050253511	0.0446969458628669	0.0359316510692067	0.0167293671860944	0.0604011742353324	0.0542735225506483
1.954	0.192245614346618	0.0445444728761418	0.0358203813601797	0.016703083166411	0.0609887407608193	0.0536516067024782
1.955	0.1933910948875471	0.0443963737034322	0.0357098446677025	0.0166907536091631	0.0615757342011915	0.0530582077424954
1.956	0.1944381031069006	0.044252592626005	0.0356000519145862	0.0166923270251635	0.0621619030000498	0.0524956034643186
1.957	0.1953862019240649	0.0441130676963553	0.0354910142431171	0.0167077498819735	0.0627470081641294	0.0519660938527283
1.958	0.1962350608901675	0.0439777310033187	0.0353827429249281	0.0167369669239467	0.0633308228384844	0.0514719987096024
1.959	0.1969844562315705	0.0438465089535132	0.0352752492716748	0.0167799214730925	0.063913131893146	0.05101565520662
1.96	0.197634270764045	0.0437193225680281	0.0351685445468934	0.0168365557100054	0.0644937315221962	0.0505994153670343
